<mxfile host="app.diagrams.net" modified="2024-03-08T03:50:24.125Z" agent="Mozilla/5.0 (Windows NT 10.0; Win64; x64) AppleWebKit/537.36 (KHTML, like Gecko) Chrome/122.0.0.0 Safari/537.36" version="24.0.2" etag="OLVZo_ne7QXdycqEG2Qy" type="github">
  <diagram name="페이지-1" id="LYd8SrjZOQXoL8wFotz3">
    <mxGraphModel>
      <root>
        <mxCell id="0" />
        <mxCell id="1" parent="0" />
      </root>
    </mxGraphModel>
  </diagram>
</mxfile>
